G04 #@! TF.FileFunction,Legend,Top*
%FSLAX46Y46*%
G04 Gerber Fmt 4.6, Leading zero omitted, Abs format (unit mm)*
G04 Created by KiCad (PCBNEW 4.0.7) date Sun Oct  1 12:43:17 2017*
%MOMM*%
%LPD*%
G01*
G04 APERTURE LIST*
%ADD10C,0.100000*%
%ADD11C,0.300000*%
%ADD12C,0.120000*%
%ADD13C,0.254000*%
%ADD14C,0.063500*%
%ADD15C,0.127000*%
%ADD16C,0.150000*%
G04 APERTURE END LIST*
D10*
D11*
X168064571Y-54260571D02*
X166564571Y-54260571D01*
X167278857Y-54260571D02*
X167278857Y-53403428D01*
X168064571Y-53403428D02*
X166564571Y-53403428D01*
X166564571Y-52903428D02*
X168064571Y-52403428D01*
X166564571Y-51903428D01*
X167921714Y-51403428D02*
X167993143Y-51332000D01*
X168064571Y-51403428D01*
X167993143Y-51474857D01*
X167921714Y-51403428D01*
X168064571Y-51403428D01*
X167493143Y-51403428D02*
X166636000Y-51474857D01*
X166564571Y-51403428D01*
X166636000Y-51332000D01*
X167493143Y-51403428D01*
X166564571Y-51403428D01*
D12*
X167048000Y-75426000D02*
X167048000Y-79546000D01*
X167048000Y-79546000D02*
X168668000Y-79546000D01*
X168668000Y-79546000D02*
X168668000Y-75426000D01*
X168668000Y-75426000D02*
X167048000Y-75426000D01*
X168668000Y-76176000D02*
X172868000Y-76176000D01*
X172868000Y-76176000D02*
X172868000Y-76796000D01*
X172868000Y-76796000D02*
X168668000Y-76796000D01*
X168668000Y-76236000D02*
X172868000Y-76236000D01*
X168668000Y-76356000D02*
X172868000Y-76356000D01*
X168668000Y-76476000D02*
X172868000Y-76476000D01*
X168668000Y-76596000D02*
X172868000Y-76596000D01*
X168668000Y-76716000D02*
X172868000Y-76716000D01*
X166543000Y-76176000D02*
X167048000Y-76176000D01*
X166543000Y-76796000D02*
X167048000Y-76796000D01*
X167048000Y-77486000D02*
X168668000Y-77486000D01*
X168668000Y-78176000D02*
X172868000Y-78176000D01*
X172868000Y-78176000D02*
X172868000Y-78796000D01*
X172868000Y-78796000D02*
X168668000Y-78796000D01*
X166490114Y-78176000D02*
X167048000Y-78176000D01*
X166490114Y-78796000D02*
X167048000Y-78796000D01*
X164608000Y-76486000D02*
X164608000Y-75486000D01*
X164608000Y-75486000D02*
X165608000Y-75486000D01*
X39962000Y-83102000D02*
X39962000Y-72982000D01*
X39962000Y-72982000D02*
X38342000Y-72982000D01*
X38342000Y-72982000D02*
X38342000Y-83102000D01*
X38342000Y-83102000D02*
X39962000Y-83102000D01*
X38342000Y-82352000D02*
X34142000Y-82352000D01*
X34142000Y-82352000D02*
X34142000Y-81732000D01*
X34142000Y-81732000D02*
X38342000Y-81732000D01*
X38342000Y-82292000D02*
X34142000Y-82292000D01*
X38342000Y-82172000D02*
X34142000Y-82172000D01*
X38342000Y-82052000D02*
X34142000Y-82052000D01*
X38342000Y-81932000D02*
X34142000Y-81932000D01*
X38342000Y-81812000D02*
X34142000Y-81812000D01*
X40467000Y-82352000D02*
X39962000Y-82352000D01*
X40467000Y-81732000D02*
X39962000Y-81732000D01*
X39962000Y-81042000D02*
X38342000Y-81042000D01*
X38342000Y-80352000D02*
X34142000Y-80352000D01*
X34142000Y-80352000D02*
X34142000Y-79732000D01*
X34142000Y-79732000D02*
X38342000Y-79732000D01*
X40519886Y-80352000D02*
X39962000Y-80352000D01*
X40519886Y-79732000D02*
X39962000Y-79732000D01*
X39962000Y-79042000D02*
X38342000Y-79042000D01*
X38342000Y-78352000D02*
X34142000Y-78352000D01*
X34142000Y-78352000D02*
X34142000Y-77732000D01*
X34142000Y-77732000D02*
X38342000Y-77732000D01*
X40519886Y-78352000D02*
X39962000Y-78352000D01*
X40519886Y-77732000D02*
X39962000Y-77732000D01*
X39962000Y-77042000D02*
X38342000Y-77042000D01*
X38342000Y-76352000D02*
X34142000Y-76352000D01*
X34142000Y-76352000D02*
X34142000Y-75732000D01*
X34142000Y-75732000D02*
X38342000Y-75732000D01*
X40519886Y-76352000D02*
X39962000Y-76352000D01*
X40519886Y-75732000D02*
X39962000Y-75732000D01*
X39962000Y-75042000D02*
X38342000Y-75042000D01*
X38342000Y-74352000D02*
X34142000Y-74352000D01*
X34142000Y-74352000D02*
X34142000Y-73732000D01*
X34142000Y-73732000D02*
X38342000Y-73732000D01*
X40519886Y-74352000D02*
X39962000Y-74352000D01*
X40519886Y-73732000D02*
X39962000Y-73732000D01*
X42402000Y-82042000D02*
X42402000Y-83042000D01*
X42402000Y-83042000D02*
X41402000Y-83042000D01*
X42262000Y-26842000D02*
X40542000Y-26842000D01*
X40542000Y-26842000D02*
X40542000Y-30562000D01*
X40542000Y-30562000D02*
X42262000Y-30562000D01*
X42262000Y-30562000D02*
X42262000Y-26842000D01*
X41402000Y-25772000D02*
X41402000Y-26842000D01*
X41402000Y-31632000D02*
X41402000Y-30562000D01*
X63217000Y-26842000D02*
X61497000Y-26842000D01*
X61497000Y-26842000D02*
X61497000Y-30562000D01*
X61497000Y-30562000D02*
X63217000Y-30562000D01*
X63217000Y-30562000D02*
X63217000Y-26842000D01*
X62357000Y-25772000D02*
X62357000Y-26842000D01*
X62357000Y-31632000D02*
X62357000Y-30562000D01*
X84807000Y-26842000D02*
X83087000Y-26842000D01*
X83087000Y-26842000D02*
X83087000Y-30562000D01*
X83087000Y-30562000D02*
X84807000Y-30562000D01*
X84807000Y-30562000D02*
X84807000Y-26842000D01*
X83947000Y-25772000D02*
X83947000Y-26842000D01*
X83947000Y-31632000D02*
X83947000Y-30562000D01*
X105762000Y-26842000D02*
X104042000Y-26842000D01*
X104042000Y-26842000D02*
X104042000Y-30562000D01*
X104042000Y-30562000D02*
X105762000Y-30562000D01*
X105762000Y-30562000D02*
X105762000Y-26842000D01*
X104902000Y-25772000D02*
X104902000Y-26842000D01*
X104902000Y-31632000D02*
X104902000Y-30562000D01*
X126717000Y-26842000D02*
X124997000Y-26842000D01*
X124997000Y-26842000D02*
X124997000Y-30562000D01*
X124997000Y-30562000D02*
X126717000Y-30562000D01*
X126717000Y-30562000D02*
X126717000Y-26842000D01*
X125857000Y-25772000D02*
X125857000Y-26842000D01*
X125857000Y-31632000D02*
X125857000Y-30562000D01*
X147672000Y-26842000D02*
X145952000Y-26842000D01*
X145952000Y-26842000D02*
X145952000Y-30562000D01*
X145952000Y-30562000D02*
X147672000Y-30562000D01*
X147672000Y-30562000D02*
X147672000Y-26842000D01*
X146812000Y-25772000D02*
X146812000Y-26842000D01*
X146812000Y-31632000D02*
X146812000Y-30562000D01*
X51292000Y-48962000D02*
G75*
G02X49292000Y-48962000I-1000000J0D01*
G01*
X49292000Y-48962000D02*
X47642000Y-48962000D01*
X47642000Y-48962000D02*
X47642000Y-69402000D01*
X47642000Y-69402000D02*
X52942000Y-69402000D01*
X52942000Y-69402000D02*
X52942000Y-48962000D01*
X52942000Y-48962000D02*
X51292000Y-48962000D01*
X72882000Y-48962000D02*
G75*
G02X70882000Y-48962000I-1000000J0D01*
G01*
X70882000Y-48962000D02*
X69232000Y-48962000D01*
X69232000Y-48962000D02*
X69232000Y-69402000D01*
X69232000Y-69402000D02*
X74532000Y-69402000D01*
X74532000Y-69402000D02*
X74532000Y-48962000D01*
X74532000Y-48962000D02*
X72882000Y-48962000D01*
X93837000Y-48962000D02*
G75*
G02X91837000Y-48962000I-1000000J0D01*
G01*
X91837000Y-48962000D02*
X90187000Y-48962000D01*
X90187000Y-48962000D02*
X90187000Y-69402000D01*
X90187000Y-69402000D02*
X95487000Y-69402000D01*
X95487000Y-69402000D02*
X95487000Y-48962000D01*
X95487000Y-48962000D02*
X93837000Y-48962000D01*
X114792000Y-48962000D02*
G75*
G02X112792000Y-48962000I-1000000J0D01*
G01*
X112792000Y-48962000D02*
X111142000Y-48962000D01*
X111142000Y-48962000D02*
X111142000Y-69402000D01*
X111142000Y-69402000D02*
X116442000Y-69402000D01*
X116442000Y-69402000D02*
X116442000Y-48962000D01*
X116442000Y-48962000D02*
X114792000Y-48962000D01*
X135747000Y-48962000D02*
G75*
G02X133747000Y-48962000I-1000000J0D01*
G01*
X133747000Y-48962000D02*
X132097000Y-48962000D01*
X132097000Y-48962000D02*
X132097000Y-69402000D01*
X132097000Y-69402000D02*
X137397000Y-69402000D01*
X137397000Y-69402000D02*
X137397000Y-48962000D01*
X137397000Y-48962000D02*
X135747000Y-48962000D01*
X156702000Y-48962000D02*
G75*
G02X154702000Y-48962000I-1000000J0D01*
G01*
X154702000Y-48962000D02*
X153052000Y-48962000D01*
X153052000Y-48962000D02*
X153052000Y-69402000D01*
X153052000Y-69402000D02*
X158352000Y-69402000D01*
X158352000Y-69402000D02*
X158352000Y-48962000D01*
X158352000Y-48962000D02*
X156702000Y-48962000D01*
D13*
X85026500Y-44259500D02*
X85026500Y-31242000D01*
X101854000Y-31402020D02*
X101854000Y-44259500D01*
X101854000Y-31402020D02*
X101854000Y-31242000D01*
D14*
X94760051Y-37592000D02*
G75*
G03X94760051Y-37592000I-1796051J0D01*
G01*
D15*
X94731314Y-37592000D02*
G75*
G03X94731314Y-37592000I-1767314J0D01*
G01*
X95463360Y-37592000D02*
X90464640Y-37592000D01*
X92964000Y-35092640D02*
X92964000Y-40091360D01*
X85034018Y-44272281D02*
G75*
G03X101854000Y-44259500I8404962J6624401D01*
G01*
X101851965Y-31242705D02*
G75*
G03X85026500Y-31242000I-8412985J-6011475D01*
G01*
D13*
X101844821Y-31232377D02*
G75*
G03X85026500Y-31242000I-8405841J-5805903D01*
G01*
X85034937Y-44273627D02*
G75*
G03X101854000Y-44259500I8404043J6541927D01*
G01*
X42354500Y-44259500D02*
X42354500Y-31242000D01*
X59182000Y-31402020D02*
X59182000Y-44259500D01*
X59182000Y-31402020D02*
X59182000Y-31242000D01*
D14*
X52088051Y-37592000D02*
G75*
G03X52088051Y-37592000I-1796051J0D01*
G01*
D15*
X52059314Y-37592000D02*
G75*
G03X52059314Y-37592000I-1767314J0D01*
G01*
X52791360Y-37592000D02*
X47792640Y-37592000D01*
X50292000Y-35092640D02*
X50292000Y-40091360D01*
X42362018Y-44272281D02*
G75*
G03X59182000Y-44259500I8404962J6624401D01*
G01*
X59179965Y-31242705D02*
G75*
G03X42354500Y-31242000I-8412985J-6011475D01*
G01*
D13*
X59172821Y-31232377D02*
G75*
G03X42354500Y-31242000I-8405841J-5805903D01*
G01*
X42362937Y-44273627D02*
G75*
G03X59182000Y-44259500I8404043J6541927D01*
G01*
X63944500Y-44259500D02*
X63944500Y-31242000D01*
X80772000Y-31402020D02*
X80772000Y-44259500D01*
X80772000Y-31402020D02*
X80772000Y-31242000D01*
D14*
X73678051Y-37592000D02*
G75*
G03X73678051Y-37592000I-1796051J0D01*
G01*
D15*
X73649314Y-37592000D02*
G75*
G03X73649314Y-37592000I-1767314J0D01*
G01*
X74381360Y-37592000D02*
X69382640Y-37592000D01*
X71882000Y-35092640D02*
X71882000Y-40091360D01*
X63952018Y-44272281D02*
G75*
G03X80772000Y-44259500I8404962J6624401D01*
G01*
X80769965Y-31242705D02*
G75*
G03X63944500Y-31242000I-8412985J-6011475D01*
G01*
D13*
X80762821Y-31232377D02*
G75*
G03X63944500Y-31242000I-8405841J-5805903D01*
G01*
X63952937Y-44273627D02*
G75*
G03X80772000Y-44259500I8404043J6541927D01*
G01*
X105854500Y-44259500D02*
X105854500Y-31242000D01*
X122682000Y-31402020D02*
X122682000Y-44259500D01*
X122682000Y-31402020D02*
X122682000Y-31242000D01*
D14*
X115588051Y-37592000D02*
G75*
G03X115588051Y-37592000I-1796051J0D01*
G01*
D15*
X115559314Y-37592000D02*
G75*
G03X115559314Y-37592000I-1767314J0D01*
G01*
X116291360Y-37592000D02*
X111292640Y-37592000D01*
X113792000Y-35092640D02*
X113792000Y-40091360D01*
X105862018Y-44272281D02*
G75*
G03X122682000Y-44259500I8404962J6624401D01*
G01*
X122679965Y-31242705D02*
G75*
G03X105854500Y-31242000I-8412985J-6011475D01*
G01*
D13*
X122672821Y-31232377D02*
G75*
G03X105854500Y-31242000I-8405841J-5805903D01*
G01*
X105862937Y-44273627D02*
G75*
G03X122682000Y-44259500I8404043J6541927D01*
G01*
X126936500Y-44259500D02*
X126936500Y-31242000D01*
X143764000Y-31402020D02*
X143764000Y-44259500D01*
X143764000Y-31402020D02*
X143764000Y-31242000D01*
D14*
X136670051Y-37592000D02*
G75*
G03X136670051Y-37592000I-1796051J0D01*
G01*
D15*
X136641314Y-37592000D02*
G75*
G03X136641314Y-37592000I-1767314J0D01*
G01*
X137373360Y-37592000D02*
X132374640Y-37592000D01*
X134874000Y-35092640D02*
X134874000Y-40091360D01*
X126944018Y-44272281D02*
G75*
G03X143764000Y-44259500I8404962J6624401D01*
G01*
X143761965Y-31242705D02*
G75*
G03X126936500Y-31242000I-8412985J-6011475D01*
G01*
D13*
X143754821Y-31232377D02*
G75*
G03X126936500Y-31242000I-8405841J-5805903D01*
G01*
X126944937Y-44273627D02*
G75*
G03X143764000Y-44259500I8404043J6541927D01*
G01*
X147764500Y-44259500D02*
X147764500Y-31242000D01*
X164592000Y-31402020D02*
X164592000Y-44259500D01*
X164592000Y-31402020D02*
X164592000Y-31242000D01*
D14*
X157498051Y-37592000D02*
G75*
G03X157498051Y-37592000I-1796051J0D01*
G01*
D15*
X157469314Y-37592000D02*
G75*
G03X157469314Y-37592000I-1767314J0D01*
G01*
X158201360Y-37592000D02*
X153202640Y-37592000D01*
X155702000Y-35092640D02*
X155702000Y-40091360D01*
X147772018Y-44272281D02*
G75*
G03X164592000Y-44259500I8404962J6624401D01*
G01*
X164589965Y-31242705D02*
G75*
G03X147764500Y-31242000I-8412985J-6011475D01*
G01*
D13*
X164582821Y-31232377D02*
G75*
G03X147764500Y-31242000I-8405841J-5805903D01*
G01*
X147772937Y-44273627D02*
G75*
G03X164592000Y-44259500I8404043J6541927D01*
G01*
D16*
X167560667Y-73874381D02*
X167560667Y-74588667D01*
X167513047Y-74731524D01*
X167417809Y-74826762D01*
X167274952Y-74874381D01*
X167179714Y-74874381D01*
X168560667Y-74874381D02*
X167989238Y-74874381D01*
X168274952Y-74874381D02*
X168274952Y-73874381D01*
X168179714Y-74017238D01*
X168084476Y-74112476D01*
X167989238Y-74160095D01*
X40941667Y-83780381D02*
X40941667Y-84494667D01*
X40894047Y-84637524D01*
X40798809Y-84732762D01*
X40655952Y-84780381D01*
X40560714Y-84780381D01*
X41370238Y-83875619D02*
X41417857Y-83828000D01*
X41513095Y-83780381D01*
X41751191Y-83780381D01*
X41846429Y-83828000D01*
X41894048Y-83875619D01*
X41941667Y-83970857D01*
X41941667Y-84066095D01*
X41894048Y-84208952D01*
X41322619Y-84780381D01*
X41941667Y-84780381D01*
X41854381Y-28868666D02*
X41378190Y-29202000D01*
X41854381Y-29440095D02*
X40854381Y-29440095D01*
X40854381Y-29059142D01*
X40902000Y-28963904D01*
X40949619Y-28916285D01*
X41044857Y-28868666D01*
X41187714Y-28868666D01*
X41282952Y-28916285D01*
X41330571Y-28963904D01*
X41378190Y-29059142D01*
X41378190Y-29440095D01*
X41854381Y-27916285D02*
X41854381Y-28487714D01*
X41854381Y-28202000D02*
X40854381Y-28202000D01*
X40997238Y-28297238D01*
X41092476Y-28392476D01*
X41140095Y-28487714D01*
X62936381Y-28868666D02*
X62460190Y-29202000D01*
X62936381Y-29440095D02*
X61936381Y-29440095D01*
X61936381Y-29059142D01*
X61984000Y-28963904D01*
X62031619Y-28916285D01*
X62126857Y-28868666D01*
X62269714Y-28868666D01*
X62364952Y-28916285D01*
X62412571Y-28963904D01*
X62460190Y-29059142D01*
X62460190Y-29440095D01*
X62031619Y-28487714D02*
X61984000Y-28440095D01*
X61936381Y-28344857D01*
X61936381Y-28106761D01*
X61984000Y-28011523D01*
X62031619Y-27963904D01*
X62126857Y-27916285D01*
X62222095Y-27916285D01*
X62364952Y-27963904D01*
X62936381Y-28535333D01*
X62936381Y-27916285D01*
X84526381Y-28868666D02*
X84050190Y-29202000D01*
X84526381Y-29440095D02*
X83526381Y-29440095D01*
X83526381Y-29059142D01*
X83574000Y-28963904D01*
X83621619Y-28916285D01*
X83716857Y-28868666D01*
X83859714Y-28868666D01*
X83954952Y-28916285D01*
X84002571Y-28963904D01*
X84050190Y-29059142D01*
X84050190Y-29440095D01*
X83526381Y-28535333D02*
X83526381Y-27916285D01*
X83907333Y-28249619D01*
X83907333Y-28106761D01*
X83954952Y-28011523D01*
X84002571Y-27963904D01*
X84097810Y-27916285D01*
X84335905Y-27916285D01*
X84431143Y-27963904D01*
X84478762Y-28011523D01*
X84526381Y-28106761D01*
X84526381Y-28392476D01*
X84478762Y-28487714D01*
X84431143Y-28535333D01*
X105354381Y-28868666D02*
X104878190Y-29202000D01*
X105354381Y-29440095D02*
X104354381Y-29440095D01*
X104354381Y-29059142D01*
X104402000Y-28963904D01*
X104449619Y-28916285D01*
X104544857Y-28868666D01*
X104687714Y-28868666D01*
X104782952Y-28916285D01*
X104830571Y-28963904D01*
X104878190Y-29059142D01*
X104878190Y-29440095D01*
X104687714Y-28011523D02*
X105354381Y-28011523D01*
X104306762Y-28249619D02*
X105021048Y-28487714D01*
X105021048Y-27868666D01*
X126436381Y-28868666D02*
X125960190Y-29202000D01*
X126436381Y-29440095D02*
X125436381Y-29440095D01*
X125436381Y-29059142D01*
X125484000Y-28963904D01*
X125531619Y-28916285D01*
X125626857Y-28868666D01*
X125769714Y-28868666D01*
X125864952Y-28916285D01*
X125912571Y-28963904D01*
X125960190Y-29059142D01*
X125960190Y-29440095D01*
X125436381Y-27963904D02*
X125436381Y-28440095D01*
X125912571Y-28487714D01*
X125864952Y-28440095D01*
X125817333Y-28344857D01*
X125817333Y-28106761D01*
X125864952Y-28011523D01*
X125912571Y-27963904D01*
X126007810Y-27916285D01*
X126245905Y-27916285D01*
X126341143Y-27963904D01*
X126388762Y-28011523D01*
X126436381Y-28106761D01*
X126436381Y-28344857D01*
X126388762Y-28440095D01*
X126341143Y-28487714D01*
X147264381Y-28868666D02*
X146788190Y-29202000D01*
X147264381Y-29440095D02*
X146264381Y-29440095D01*
X146264381Y-29059142D01*
X146312000Y-28963904D01*
X146359619Y-28916285D01*
X146454857Y-28868666D01*
X146597714Y-28868666D01*
X146692952Y-28916285D01*
X146740571Y-28963904D01*
X146788190Y-29059142D01*
X146788190Y-29440095D01*
X146264381Y-28011523D02*
X146264381Y-28202000D01*
X146312000Y-28297238D01*
X146359619Y-28344857D01*
X146502476Y-28440095D01*
X146692952Y-28487714D01*
X147073905Y-28487714D01*
X147169143Y-28440095D01*
X147216762Y-28392476D01*
X147264381Y-28297238D01*
X147264381Y-28106761D01*
X147216762Y-28011523D01*
X147169143Y-27963904D01*
X147073905Y-27916285D01*
X146835810Y-27916285D01*
X146740571Y-27963904D01*
X146692952Y-28011523D01*
X146645333Y-28106761D01*
X146645333Y-28297238D01*
X146692952Y-28392476D01*
X146740571Y-28440095D01*
X146835810Y-28487714D01*
X49530095Y-50252381D02*
X49530095Y-51061905D01*
X49577714Y-51157143D01*
X49625333Y-51204762D01*
X49720571Y-51252381D01*
X49911048Y-51252381D01*
X50006286Y-51204762D01*
X50053905Y-51157143D01*
X50101524Y-51061905D01*
X50101524Y-50252381D01*
X51006286Y-50585714D02*
X51006286Y-51252381D01*
X50768190Y-50204762D02*
X50530095Y-50919048D01*
X51149143Y-50919048D01*
X71120095Y-50252381D02*
X71120095Y-51061905D01*
X71167714Y-51157143D01*
X71215333Y-51204762D01*
X71310571Y-51252381D01*
X71501048Y-51252381D01*
X71596286Y-51204762D01*
X71643905Y-51157143D01*
X71691524Y-51061905D01*
X71691524Y-50252381D01*
X72643905Y-50252381D02*
X72167714Y-50252381D01*
X72120095Y-50728571D01*
X72167714Y-50680952D01*
X72262952Y-50633333D01*
X72501048Y-50633333D01*
X72596286Y-50680952D01*
X72643905Y-50728571D01*
X72691524Y-50823810D01*
X72691524Y-51061905D01*
X72643905Y-51157143D01*
X72596286Y-51204762D01*
X72501048Y-51252381D01*
X72262952Y-51252381D01*
X72167714Y-51204762D01*
X72120095Y-51157143D01*
X91948095Y-50252381D02*
X91948095Y-51061905D01*
X91995714Y-51157143D01*
X92043333Y-51204762D01*
X92138571Y-51252381D01*
X92329048Y-51252381D01*
X92424286Y-51204762D01*
X92471905Y-51157143D01*
X92519524Y-51061905D01*
X92519524Y-50252381D01*
X93424286Y-50252381D02*
X93233809Y-50252381D01*
X93138571Y-50300000D01*
X93090952Y-50347619D01*
X92995714Y-50490476D01*
X92948095Y-50680952D01*
X92948095Y-51061905D01*
X92995714Y-51157143D01*
X93043333Y-51204762D01*
X93138571Y-51252381D01*
X93329048Y-51252381D01*
X93424286Y-51204762D01*
X93471905Y-51157143D01*
X93519524Y-51061905D01*
X93519524Y-50823810D01*
X93471905Y-50728571D01*
X93424286Y-50680952D01*
X93329048Y-50633333D01*
X93138571Y-50633333D01*
X93043333Y-50680952D01*
X92995714Y-50728571D01*
X92948095Y-50823810D01*
X113030095Y-50252381D02*
X113030095Y-51061905D01*
X113077714Y-51157143D01*
X113125333Y-51204762D01*
X113220571Y-51252381D01*
X113411048Y-51252381D01*
X113506286Y-51204762D01*
X113553905Y-51157143D01*
X113601524Y-51061905D01*
X113601524Y-50252381D01*
X113982476Y-50252381D02*
X114649143Y-50252381D01*
X114220571Y-51252381D01*
X133858095Y-50252381D02*
X133858095Y-51061905D01*
X133905714Y-51157143D01*
X133953333Y-51204762D01*
X134048571Y-51252381D01*
X134239048Y-51252381D01*
X134334286Y-51204762D01*
X134381905Y-51157143D01*
X134429524Y-51061905D01*
X134429524Y-50252381D01*
X135048571Y-50680952D02*
X134953333Y-50633333D01*
X134905714Y-50585714D01*
X134858095Y-50490476D01*
X134858095Y-50442857D01*
X134905714Y-50347619D01*
X134953333Y-50300000D01*
X135048571Y-50252381D01*
X135239048Y-50252381D01*
X135334286Y-50300000D01*
X135381905Y-50347619D01*
X135429524Y-50442857D01*
X135429524Y-50490476D01*
X135381905Y-50585714D01*
X135334286Y-50633333D01*
X135239048Y-50680952D01*
X135048571Y-50680952D01*
X134953333Y-50728571D01*
X134905714Y-50776190D01*
X134858095Y-50871429D01*
X134858095Y-51061905D01*
X134905714Y-51157143D01*
X134953333Y-51204762D01*
X135048571Y-51252381D01*
X135239048Y-51252381D01*
X135334286Y-51204762D01*
X135381905Y-51157143D01*
X135429524Y-51061905D01*
X135429524Y-50871429D01*
X135381905Y-50776190D01*
X135334286Y-50728571D01*
X135239048Y-50680952D01*
X154940095Y-50252381D02*
X154940095Y-51061905D01*
X154987714Y-51157143D01*
X155035333Y-51204762D01*
X155130571Y-51252381D01*
X155321048Y-51252381D01*
X155416286Y-51204762D01*
X155463905Y-51157143D01*
X155511524Y-51061905D01*
X155511524Y-50252381D01*
X156035333Y-51252381D02*
X156225809Y-51252381D01*
X156321048Y-51204762D01*
X156368667Y-51157143D01*
X156463905Y-51014286D01*
X156511524Y-50823810D01*
X156511524Y-50442857D01*
X156463905Y-50347619D01*
X156416286Y-50300000D01*
X156321048Y-50252381D01*
X156130571Y-50252381D01*
X156035333Y-50300000D01*
X155987714Y-50347619D01*
X155940095Y-50442857D01*
X155940095Y-50680952D01*
X155987714Y-50776190D01*
X156035333Y-50823810D01*
X156130571Y-50871429D01*
X156321048Y-50871429D01*
X156416286Y-50823810D01*
X156463905Y-50776190D01*
X156511524Y-50680952D01*
X90874222Y-38044381D02*
X90874222Y-37044381D01*
X91350412Y-38044381D02*
X91350412Y-37044381D01*
X91921841Y-38044381D01*
X91921841Y-37044381D01*
X92398031Y-37663429D02*
X93159936Y-37663429D01*
X94159936Y-38044381D02*
X93588507Y-38044381D01*
X93874221Y-38044381D02*
X93874221Y-37044381D01*
X93778983Y-37187238D01*
X93683745Y-37282476D01*
X93588507Y-37330095D01*
X94540888Y-37139619D02*
X94588507Y-37092000D01*
X94683745Y-37044381D01*
X94921841Y-37044381D01*
X95017079Y-37092000D01*
X95064698Y-37139619D01*
X95112317Y-37234857D01*
X95112317Y-37330095D01*
X95064698Y-37472952D01*
X94493269Y-38044381D01*
X95112317Y-38044381D01*
X95874222Y-37520571D02*
X96017079Y-37568190D01*
X96064698Y-37615810D01*
X96112317Y-37711048D01*
X96112317Y-37853905D01*
X96064698Y-37949143D01*
X96017079Y-37996762D01*
X95921841Y-38044381D01*
X95540888Y-38044381D01*
X95540888Y-37044381D01*
X95874222Y-37044381D01*
X95969460Y-37092000D01*
X96017079Y-37139619D01*
X96064698Y-37234857D01*
X96064698Y-37330095D01*
X96017079Y-37425333D01*
X95969460Y-37472952D01*
X95874222Y-37520571D01*
X95540888Y-37520571D01*
X48202222Y-38044381D02*
X48202222Y-37044381D01*
X48678412Y-38044381D02*
X48678412Y-37044381D01*
X49249841Y-38044381D01*
X49249841Y-37044381D01*
X49726031Y-37663429D02*
X50487936Y-37663429D01*
X51487936Y-38044381D02*
X50916507Y-38044381D01*
X51202221Y-38044381D02*
X51202221Y-37044381D01*
X51106983Y-37187238D01*
X51011745Y-37282476D01*
X50916507Y-37330095D01*
X51868888Y-37139619D02*
X51916507Y-37092000D01*
X52011745Y-37044381D01*
X52249841Y-37044381D01*
X52345079Y-37092000D01*
X52392698Y-37139619D01*
X52440317Y-37234857D01*
X52440317Y-37330095D01*
X52392698Y-37472952D01*
X51821269Y-38044381D01*
X52440317Y-38044381D01*
X53202222Y-37520571D02*
X53345079Y-37568190D01*
X53392698Y-37615810D01*
X53440317Y-37711048D01*
X53440317Y-37853905D01*
X53392698Y-37949143D01*
X53345079Y-37996762D01*
X53249841Y-38044381D01*
X52868888Y-38044381D01*
X52868888Y-37044381D01*
X53202222Y-37044381D01*
X53297460Y-37092000D01*
X53345079Y-37139619D01*
X53392698Y-37234857D01*
X53392698Y-37330095D01*
X53345079Y-37425333D01*
X53297460Y-37472952D01*
X53202222Y-37520571D01*
X52868888Y-37520571D01*
X69792222Y-38044381D02*
X69792222Y-37044381D01*
X70268412Y-38044381D02*
X70268412Y-37044381D01*
X70839841Y-38044381D01*
X70839841Y-37044381D01*
X71316031Y-37663429D02*
X72077936Y-37663429D01*
X73077936Y-38044381D02*
X72506507Y-38044381D01*
X72792221Y-38044381D02*
X72792221Y-37044381D01*
X72696983Y-37187238D01*
X72601745Y-37282476D01*
X72506507Y-37330095D01*
X73458888Y-37139619D02*
X73506507Y-37092000D01*
X73601745Y-37044381D01*
X73839841Y-37044381D01*
X73935079Y-37092000D01*
X73982698Y-37139619D01*
X74030317Y-37234857D01*
X74030317Y-37330095D01*
X73982698Y-37472952D01*
X73411269Y-38044381D01*
X74030317Y-38044381D01*
X74792222Y-37520571D02*
X74935079Y-37568190D01*
X74982698Y-37615810D01*
X75030317Y-37711048D01*
X75030317Y-37853905D01*
X74982698Y-37949143D01*
X74935079Y-37996762D01*
X74839841Y-38044381D01*
X74458888Y-38044381D01*
X74458888Y-37044381D01*
X74792222Y-37044381D01*
X74887460Y-37092000D01*
X74935079Y-37139619D01*
X74982698Y-37234857D01*
X74982698Y-37330095D01*
X74935079Y-37425333D01*
X74887460Y-37472952D01*
X74792222Y-37520571D01*
X74458888Y-37520571D01*
X111702222Y-38044381D02*
X111702222Y-37044381D01*
X112178412Y-38044381D02*
X112178412Y-37044381D01*
X112749841Y-38044381D01*
X112749841Y-37044381D01*
X113226031Y-37663429D02*
X113987936Y-37663429D01*
X114987936Y-38044381D02*
X114416507Y-38044381D01*
X114702221Y-38044381D02*
X114702221Y-37044381D01*
X114606983Y-37187238D01*
X114511745Y-37282476D01*
X114416507Y-37330095D01*
X115368888Y-37139619D02*
X115416507Y-37092000D01*
X115511745Y-37044381D01*
X115749841Y-37044381D01*
X115845079Y-37092000D01*
X115892698Y-37139619D01*
X115940317Y-37234857D01*
X115940317Y-37330095D01*
X115892698Y-37472952D01*
X115321269Y-38044381D01*
X115940317Y-38044381D01*
X116702222Y-37520571D02*
X116845079Y-37568190D01*
X116892698Y-37615810D01*
X116940317Y-37711048D01*
X116940317Y-37853905D01*
X116892698Y-37949143D01*
X116845079Y-37996762D01*
X116749841Y-38044381D01*
X116368888Y-38044381D01*
X116368888Y-37044381D01*
X116702222Y-37044381D01*
X116797460Y-37092000D01*
X116845079Y-37139619D01*
X116892698Y-37234857D01*
X116892698Y-37330095D01*
X116845079Y-37425333D01*
X116797460Y-37472952D01*
X116702222Y-37520571D01*
X116368888Y-37520571D01*
X132784222Y-38044381D02*
X132784222Y-37044381D01*
X133260412Y-38044381D02*
X133260412Y-37044381D01*
X133831841Y-38044381D01*
X133831841Y-37044381D01*
X134308031Y-37663429D02*
X135069936Y-37663429D01*
X136069936Y-38044381D02*
X135498507Y-38044381D01*
X135784221Y-38044381D02*
X135784221Y-37044381D01*
X135688983Y-37187238D01*
X135593745Y-37282476D01*
X135498507Y-37330095D01*
X136450888Y-37139619D02*
X136498507Y-37092000D01*
X136593745Y-37044381D01*
X136831841Y-37044381D01*
X136927079Y-37092000D01*
X136974698Y-37139619D01*
X137022317Y-37234857D01*
X137022317Y-37330095D01*
X136974698Y-37472952D01*
X136403269Y-38044381D01*
X137022317Y-38044381D01*
X137784222Y-37520571D02*
X137927079Y-37568190D01*
X137974698Y-37615810D01*
X138022317Y-37711048D01*
X138022317Y-37853905D01*
X137974698Y-37949143D01*
X137927079Y-37996762D01*
X137831841Y-38044381D01*
X137450888Y-38044381D01*
X137450888Y-37044381D01*
X137784222Y-37044381D01*
X137879460Y-37092000D01*
X137927079Y-37139619D01*
X137974698Y-37234857D01*
X137974698Y-37330095D01*
X137927079Y-37425333D01*
X137879460Y-37472952D01*
X137784222Y-37520571D01*
X137450888Y-37520571D01*
X153612222Y-38044381D02*
X153612222Y-37044381D01*
X154088412Y-38044381D02*
X154088412Y-37044381D01*
X154659841Y-38044381D01*
X154659841Y-37044381D01*
X155136031Y-37663429D02*
X155897936Y-37663429D01*
X156897936Y-38044381D02*
X156326507Y-38044381D01*
X156612221Y-38044381D02*
X156612221Y-37044381D01*
X156516983Y-37187238D01*
X156421745Y-37282476D01*
X156326507Y-37330095D01*
X157278888Y-37139619D02*
X157326507Y-37092000D01*
X157421745Y-37044381D01*
X157659841Y-37044381D01*
X157755079Y-37092000D01*
X157802698Y-37139619D01*
X157850317Y-37234857D01*
X157850317Y-37330095D01*
X157802698Y-37472952D01*
X157231269Y-38044381D01*
X157850317Y-38044381D01*
X158612222Y-37520571D02*
X158755079Y-37568190D01*
X158802698Y-37615810D01*
X158850317Y-37711048D01*
X158850317Y-37853905D01*
X158802698Y-37949143D01*
X158755079Y-37996762D01*
X158659841Y-38044381D01*
X158278888Y-38044381D01*
X158278888Y-37044381D01*
X158612222Y-37044381D01*
X158707460Y-37092000D01*
X158755079Y-37139619D01*
X158802698Y-37234857D01*
X158802698Y-37330095D01*
X158755079Y-37425333D01*
X158707460Y-37472952D01*
X158612222Y-37520571D01*
X158278888Y-37520571D01*
M02*
